<?xml version="1.0" encoding="UTF-8"?>
<svg width="600" height="400" viewBox="0 0 600 400" xmlns="http://www.w3.org/2000/svg">
  <!-- Background with gradient -->
  <rect width="600" height="400" fill="#004d00" rx="20" ry="20"/>

  <!-- Dark green pattern overlay -->
  <rect width="600" height="400" fill="url(#darkGreenPattern)" opacity="0.3" rx="20" ry="20"/>

  <defs>
    <pattern id="darkGreenPattern" patternUnits="userSpaceOnUse" width="50" height="50" patternTransform="rotate(45)">
      <rect width="50" height="50" fill="#006400"/>
      <rect x="25" y="0" width="25" height="25" fill="#008000"/>
      <rect x="0" y="25" width="25" height="25" fill="#008000"/>
    </pattern>
  </defs>

  <!-- Decorative elements -->
  <circle cx="100" cy="100" r="80" fill="none" stroke="#39FF14" stroke-width="2" opacity="0.2"/>
  <circle cx="500" cy="300" r="60" fill="none" stroke="#39FF14" stroke-width="2" opacity="0.2"/>
  <circle cx="300" cy="200" r="150" fill="none" stroke="#39FF14" stroke-width="1" opacity="0.1"/>

  <!-- Queue line representation -->
  <path d="M150,250 L450,250" stroke="#39FF14" stroke-width="4" stroke-linecap="round" stroke-dasharray="15,10"/>

  <!-- People in queue -->
  <circle cx="180" cy="250" r="20" fill="#39FF14"/>
  <circle cx="240" cy="250" r="20" fill="#39FF14" opacity="0.8"/>
  <circle cx="300" cy="250" r="20" fill="#39FF14" opacity="0.6"/>
  <circle cx="360" cy="250" r="20" fill="#39FF14" opacity="0.4"/>
  <circle cx="420" cy="250" r="20" fill="#39FF14" opacity="0.2"/>

  <!-- Service point -->
  <rect x="470" y="230" width="40" height="40" fill="#39FF14" rx="5" ry="5"/>

  <!-- Digital elements -->
  <rect x="200" y="120" width="200" height="40" fill="none" stroke="#39FF14" stroke-width="2" rx="5" ry="5"/>
  <text x="300" y="145" font-family="Arial" font-size="20" fill="#39FF14" text-anchor="middle">WAIT TIME: 5 MIN</text>

  <!-- AI representation -->
  <path d="M300,50 L320,80 L280,80 Z" fill="#39FF14"/>
  <circle cx="300" cy="90" r="15" fill="#39FF14"/>

  <!-- Connecting lines representing data flow -->
  <path d="M300,105 L300,120" stroke="#39FF14" stroke-width="2" stroke-dasharray="5,5"/>
  <path d="M300,160 L300,230" stroke="#39FF14" stroke-width="2" stroke-dasharray="5,5"/>

  <!-- Glow effects -->
  <circle cx="180" cy="250" r="25" fill="#39FF14" opacity="0.4" filter="blur(5px)"/>
  <rect x="470" y="230" width="40" height="40" fill="#39FF14" opacity="0.4" rx="5" ry="5" filter="blur(10px)"/>

  <!-- Additional glow elements -->
  <circle cx="300" cy="90" r="20" fill="#39FF14" opacity="0.3" filter="blur(8px)"/>
  <rect x="200" y="120" width="200" height="40" fill="#39FF14" opacity="0.2" rx="5" ry="5" filter="blur(5px)"/>

  <!-- QueueWise text -->
  <text x="300" y="350" font-family="Arial" font-size="24" font-weight="bold" fill="#39FF14" text-anchor="middle">QueueWise</text>
  <text x="300" y="380" font-family="Arial" font-size="16" fill="#39FF14" text-anchor="middle" opacity="0.7">Smart Queue Management</text>
</svg>
