<?xml version="1.0" encoding="UTF-8"?>
<svg width="600" height="400" viewBox="0 0 600 400" xmlns="http://www.w3.org/2000/svg">
  <!-- Background with gradient -->
  <rect width="600" height="400" fill="#004d00" rx="20" ry="20"/>

  <!-- Dark green pattern overlay -->
  <rect width="600" height="400" fill="url(#darkGreenPattern)" opacity="0.3" rx="20" ry="20"/>

  <defs>
    <pattern id="darkGreenPattern" patternUnits="userSpaceOnUse" width="50" height="50" patternTransform="rotate(45)">
      <rect width="50" height="50" fill="#006400"/>
      <rect x="25" y="0" width="25" height="25" fill="#008000"/>
      <rect x="0" y="25" width="25" height="25" fill="#008000"/>
    </pattern>
  </defs>

  <!-- Dashboard frame -->
  <rect x="50" y="50" width="500" height="300" rx="10" ry="10" fill="#003300" stroke="#39FF14" stroke-width="2"/>

  <!-- Header -->
  <rect x="50" y="50" width="500" height="50" rx="10" ry="10" fill="#39FF14" opacity="0.2"/>
  <text x="300" y="80" font-family="Arial" font-size="20" fill="#39FF14" text-anchor="middle" font-weight="bold">Queue Analytics Dashboard</text>

  <!-- Chart area -->
  <rect x="70" y="120" width="280" height="200" rx="5" ry="5" fill="#004d00" stroke="#39FF14" stroke-width="1"/>

  <!-- Bar chart -->
  <rect x="90" y="250" width="30" height="50" fill="#39FF14" opacity="0.7"/>
  <rect x="130" y="220" width="30" height="80" fill="#39FF14" opacity="0.8"/>
  <rect x="170" y="200" width="30" height="100" fill="#39FF14"/>
  <rect x="210" y="230" width="30" height="70" fill="#39FF14" opacity="0.9"/>
  <rect x="250" y="260" width="30" height="40" fill="#39FF14" opacity="0.7"/>
  <rect x="290" y="240" width="30" height="60" fill="#39FF14" opacity="0.8"/>

  <!-- Chart grid lines -->
  <line x1="70" y1="200" x2="350" y2="200" stroke="#39FF14" stroke-width="1" opacity="0.3" stroke-dasharray="5,5"/>
  <line x1="70" y1="250" x2="350" y2="250" stroke="#39FF14" stroke-width="1" opacity="0.3" stroke-dasharray="5,5"/>
  <line x1="70" y1="150" x2="350" y2="150" stroke="#39FF14" stroke-width="1" opacity="0.3" stroke-dasharray="5,5"/>

  <!-- Chart labels -->
  <text x="105" y="310" font-family="Arial" font-size="10" fill="#39FF14" text-anchor="middle">Mon</text>
  <text x="145" y="310" font-family="Arial" font-size="10" fill="#39FF14" text-anchor="middle">Tue</text>
  <text x="185" y="310" font-family="Arial" font-size="10" fill="#39FF14" text-anchor="middle">Wed</text>
  <text x="225" y="310" font-family="Arial" font-size="10" fill="#39FF14" text-anchor="middle">Thu</text>
  <text x="265" y="310" font-family="Arial" font-size="10" fill="#39FF14" text-anchor="middle">Fri</text>
  <text x="305" y="310" font-family="Arial" font-size="10" fill="#39FF14" text-anchor="middle">Sat</text>

  <!-- Stats panels -->
  <rect x="370" y="120" width="160" height="60" rx="5" ry="5" fill="#004d00" stroke="#39FF14" stroke-width="1"/>
  <text x="450" y="145" font-family="Arial" font-size="12" fill="#39FF14" text-anchor="middle">Average Wait Time</text>
  <text x="450" y="165" font-family="Arial" font-size="18" fill="#39FF14" text-anchor="middle" font-weight="bold">14.2 min</text>

  <rect x="370" y="190" width="160" height="60" rx="5" ry="5" fill="#004d00" stroke="#39FF14" stroke-width="1"/>
  <text x="450" y="215" font-family="Arial" font-size="12" fill="#39FF14" text-anchor="middle">Customers Served</text>
  <text x="450" y="235" font-family="Arial" font-size="18" fill="#39FF14" text-anchor="middle" font-weight="bold">1,248</text>

  <rect x="370" y="260" width="160" height="60" rx="5" ry="5" fill="#004d00" stroke="#39FF14" stroke-width="1"/>
  <text x="450" y="285" font-family="Arial" font-size="12" fill="#39FF14" text-anchor="middle">Customer Satisfaction</text>
  <text x="450" y="305" font-family="Arial" font-size="18" fill="#39FF14" text-anchor="middle" font-weight="bold">94%</text>

  <!-- Glow effects for panels -->
  <rect x="370" y="120" width="160" height="60" rx="5" ry="5" fill="#39FF14" opacity="0.1" filter="blur(5px)"/>
  <rect x="370" y="190" width="160" height="60" rx="5" ry="5" fill="#39FF14" opacity="0.1" filter="blur(5px)"/>
  <rect x="370" y="260" width="160" height="60" rx="5" ry="5" fill="#39FF14" opacity="0.1" filter="blur(5px)"/>

  <!-- Line chart overlay -->
  <path d="M90,230 L130,210 L170,180 L210,200 L250,240 L290,220" fill="none" stroke="#fff" stroke-width="2" opacity="0.7"/>
  <circle cx="90" cy="230" r="3" fill="#fff"/>
  <circle cx="130" cy="210" r="3" fill="#fff"/>
  <circle cx="170" cy="180" r="3" fill="#fff"/>
  <circle cx="210" cy="200" r="3" fill="#fff"/>
  <circle cx="250" cy="240" r="3" fill="#fff"/>
  <circle cx="290" cy="220" r="3" fill="#fff"/>

  <!-- Decorative elements -->
  <circle cx="100" cy="50" r="80" fill="none" stroke="#39FF14" stroke-width="1" opacity="0.1"/>
  <circle cx="500" cy="350" r="100" fill="none" stroke="#39FF14" stroke-width="1" opacity="0.1"/>
</svg>
